<mxfile host="app.diagrams.net" modified="2024-06-06T12:53:37.630Z" agent="Mozilla/5.0 (Windows NT 10.0; Win64; x64) AppleWebKit/537.36 (KHTML, like Gecko) Chrome/123.0.0.0 Safari/537.36 OPR/109.0.0.0" version="24.4.6" etag="LfYfHN5RWr0eSu0m_zDF" type="github">
  <diagram name="PÃ¡gina-1" id="jZ0Q9hAeoDfUBkGSwIYa">
    <mxGraphModel>
      <root>
        <mxCell id="0" />
        <mxCell id="1" parent="0" />
      </root>
    </mxGraphModel>
  </diagram>
</mxfile>
